<svg xmlns="http://www.w3.org/2000/svg" version="1.0" viewBox="0 0 700 700">
  <path d="M327.8.4c-.1.2-3.9.6-8.3 1-39.8 3.1-84 15.2-121 33.2-18 8.7-44.8 24.7-55.5 33.1-.8.6-5.1 4-9.5 7.4-42.6 33.1-81.3 82.5-102 129.9-2.5 5.8-5 11.4-5.5 12.5-4.5 9.3-15 42.7-17.6 56-.2 1.1-1 5.4-1.9 9.5-2.9 14.7-3.5 19.4-5.2 37-1.5 16.3-.8 59.2 1.2 71.1.2 1.3.6 4.6.9 7.4.9 7.8 2.2 15.2 5.1 28.5 2.1 9.6 9.1 33.9 11.4 39.5.5 1.1 2.5 6.5 4.6 12 6.3 16.6 24.9 53.1 31.2 61 .4.6 3.4 4.9 6.5 9.5 5.2 7.8 21.4 28.6 26.3 33.6 19.8 20.8 29.3 29.7 44.5 41.9 9.2 7.4 37 26.5 38.6 26.5.4 0 1.5.6 2.3 1.4 2.6 2.2 29.8 15.8 41.1 20.5 26.7 11.1 58.9 20 85.9 23.7 2.5.3 5.7.8 7.1 1 16.3 2.5 68.2 2.5 84.2-.1 1.3-.2 4.6-.7 7.3-1 7.2-1 8.6-1.2 12-1.9 1.7-.3 4.4-.8 6-1.1 19.4-3.7 41.1-10.1 62.2-18.4 13-5.2 41.8-19.2 47.3-23.1 1.5-1.1 3.3-2 3.9-2 .6 0 1.1-.5 1.1-1 0-.6.5-1 1-1 1.5 0 22-14.1 33-22.7 15.2-11.8 32.4-28 45-42.2 3.6-4.1 7-7.9 7.6-8.5.6-.6 4.8-6.1 9.4-12.1 15-19.7 27.7-40.5 38.3-62.8 2.6-5.3 4.7-9.9 4.7-10.2 0-.2 1.1-2.8 2.4-5.7 5.7-12.7 15.1-42.1 18.2-57.3 1.7-8.1 5.4-30.1 5.9-35 .4-3.3.9-7.1 1.1-8.5.9-4.6 1.1-52.4.4-60.5-1.5-15.3-2.1-21-2.5-22.5-.2-.8-.7-3.5-1-6-1.7-12.9-8-38.4-13.6-55.2-32.4-96.4-105.4-174.2-199.9-213-22.3-9.2-55.7-18.6-76-21.3-1.9-.3-4.6-.7-6-1-1.3-.2-5.2-.7-8.6-1.1-3.3-.3-7.4-.8-9-1-3.2-.5-54-1.4-54.6-1zM197.5 213c10 1.6 17.9 3.7 26.8 7.3l7.9 3-.5 4.1c-.3 2.3-2.3 13.1-4.5 24.1-2.2 11-4.3 21.7-4.7 23.9l-.6 3.9-4.7-4.8c-13.4-13.8-34.2-20.6-52.6-17.2-10.2 1.8-22.6 9.1-31.5 18.6-14.9 15.7-30 52.1-33.6 81.1-.4 3-.9 6.6-1.1 8-.5 4-.5 22 .1 27.5.7 6.8 4.1 17.2 7.2 22 7.1 11 17.4 16.4 32.1 16.9 16.7.6 31.4-4.5 50.5-17.5 6.1-4.1 8.7-5.5 8.3-4.2-.3 1-.8 3.3-1.1 5.1-.3 1.8-1.2 6.4-2 10.2-.8 3.8-1.7 8.3-2 10-.3 1.6-.7 4.5-1.1 6.2-.3 1.8-1 5.3-1.5 7.8-1.1 4.8-1.3 5.5-2.3 11.1-.6 3.2-1.3 3.9-5.7 5.8-5 2.2-16.4 5.9-20.3 6.7-1.2.2-4.6.9-7.6 1.6-3.2.7-12.7 1.2-23 1.2-14.7 0-18.8-.3-25.7-2.2-20.3-5.3-35.9-16.8-45-33-9.2-16.4-12.6-32.3-12.5-57.7.1-14.3 1.1-27.2 2.8-35.9.2-1.1.6-3.8.9-6.1 2.6-17.9 12.4-45.5 22.8-64.7 20.1-36.9 52.8-59.9 90.2-63.4 3.9-.4 7.1-.7 7.2-.9.8-.6 20.9.5 26.8 1.5zm187 5.4c15.5 3.4 24.8 7.7 32.6 14.9 11.6 10.8 16.1 22.2 16.4 42 .1 6.5-.2 13.9-.7 16.5-.4 2.6-1.1 5.9-1.3 7.4-1.9 10.6-11 26.5-19.3 33.9-5 4.3-13.7 9.7-18.7 11.6-1.6.6-3.9 1.4-5 1.9-3 1.1-3.4 1.2-10.8 2.6l-6.7 1.3 5.1 1.8c6.2 2.2 12 7.8 15.3 14.9 2 4.3 18.7 57.2 29.6 93.7 1.2 4 2.4 8 2.7 8.7.4 1.2-3.9 1.4-25.6 1.4-20.2 0-26.1-.3-26.1-1.3 0-3.2-21.4-75.9-23.9-81.3-3.2-6.9-8.9-13.7-13.5-16.1-2.3-1.2-6.4-1.7-15.7-1.9l-12.7-.3-4.1 21.4c-2.3 11.7-4.4 22.6-4.7 24.2-.3 1.5-.7 3.5-.9 4.3-.2.8-.7 3.1-1 5-.5 3.3-.9 5.2-2 11-2 9.5-6.5 33.3-6.5 34.1 0 .5-10.8.9-25.6.9-23.8 0-25.5-.1-25-1.8.7-2.2 1.5-6 2.1-9.6.2-1.6.9-5.2 1.4-8 .6-2.8 1.3-6.2 1.5-7.6.3-1.4 1.6-8.4 3.1-15.5 1.4-7.2 2.8-14.6 3.1-16.5.3-1.9.7-4.3 1-5.2.3-1 .7-3 1-4.5.3-1.6.7-3.5.9-4.3.2-.8.7-3.1 1-5 .3-1.9 1.7-9.1 3-16s2.7-13.6 2.9-15c.6-3.1 2.4-12.6 3.1-16 .3-1.4.7-3.6 1-5 .3-1.4.7-3.4.9-4.5.9-4.5 4.5-23.2 5.1-26.5.3-1.9.8-4.2 1-5 .2-.8.7-3.1 1-5 .3-1.9 1-5.4 1.6-7.8.5-2.3 1.2-5.9 1.5-8 .3-2 .7-4.5 1-5.4.3-1 .7-3 1-4.5.2-1.6 1-5.3 1.6-8.3.6-3 1.2-6.2 1.3-7 .1-.8 1-5.3 1.9-10 1-4.7 1.9-9.6 2.2-11 1.5-8 3.6-18.8 4.1-20.4.5-1.7 2.4-1.8 46.1-1.3 36.4.4 47.1.8 52.7 2.1zm160.6-1.2c.1.7.2 2.4.4 3.8.1 1.4.6 7.2 1 13 .3 5.8.8 12.1 1 14 .2 1.9.6 7.8 1 13 .3 5.2.8 11.1 1 13 .2 1.9.7 7.5 1 12.5.3 4.9.8 11.7 1.1 15 .8 9.9 1.3 17.8 1.4 22 0 2.2.4 3.5.8 3 .7-.8 9.2-19.1 20.7-45 5.8-12.9 16.5-36.3 21.1-46.3 1.9-4 3.4-7.5 3.4-7.8 0-.3 1.2-3 2.7-6l2.6-5.4h61.5l-.9 4.2c-.4 2.4-2.4 12.8-4.4 23.3-2 10.4-4 21-4.5 23.5s-1.2 5.6-1.4 7c-.3 1.4-1.2 6.3-2.1 11-.9 4.7-1.9 9.6-2.1 11-.3 1.4-.7 3.2-.9 4-.2.8-.7 3.1-1 5-.3 1.9-1.2 6.9-2 11-.9 4.1-1.7 8.6-2 10-.3 1.4-.7 3.6-1 5-.2 1.4-.7 3.6-.9 5-.3 1.4-1.8 9.5-3.5 18-3.8 19.6-3.8 19.3-5.1 26.5-.6 3.3-1.5 8-2 10.5s-1.2 5.6-1.4 7c-.6 3.2-11.1 57.5-12.9 66l-1.3 6.5-21.8.3c-20.4.2-21.7.1-21.2-1.5s5.9-28.7 7.1-35.2c.5-2.6 2-10.5 3-15.1.7-3.4 2.4-12 2.9-15 .3-1.4 2.3-11.7 4.6-23 2.2-11.3 4.2-21.6 4.5-23 1-5 1.4-7.2 1.9-8.8.3-.9.7-3.3 1-5.2.3-1.9.8-4.4 1-5.5 1.5-7.1 10.8-54.5 11.1-56.5.2-1.4.9-4.7 1.5-7.4s.9-5 .7-5.3c-.2-.2-1.8 3-3.5 7s-4.4 10.2-6 13.7c-3.1 6.6-5.6 12.2-27.1 60.4-6.6 14.7-12.2 27.1-12.5 27.4-.3.3-8.9.6-19.1.6l-18.5.1-.1-3.5c0-1.9-.2-4.3-.4-5.3s-.6-7.1-1-13.5c-.3-6.4-.8-13.3-1-15.2-.4-5-1.4-18-2.1-29-.3-5.2-.7-11.1-.9-13-.2-1.9-.7-8.2-1.1-14-.8-13.9-1-14.9-1.7-15.7-.4-.3-.7.5-.8 1.8 0 1.3-.2 3.1-.4 3.9-.1.8-.8 4-1.4 7-1.8 8.8-2.1 10.3-2.6 13.5-.2 1.6-.7 4.1-1 5.5-.3 1.4-1.7 8.6-3.1 16-1.4 7.4-2.7 13.9-2.8 14.5-.2.5-.6 2.8-1 5s-3.4 17.7-6.7 34.5c-6.4 33.4-6.3 32.9-7.9 41.5-.6 3.3-1.5 8-2 10.5s-1.2 5.6-1.4 7c-.2 1.4-1.6 8.3-3 15.5-1.4 7.1-2.7 14.1-3 15.5-.2 1.4-.7 4.2-1.1 6.2l-.7 3.8h-21.4c-17.6 0-21.4-.2-21.4-1.4 0-.8.9-6 2.1-11.7 1.1-5.7 2.2-11.1 2.4-11.9.7-3.8 4.5-23.8 4.9-26.3.3-1.5.7-3.5 1-4.5.3-.9.7-3.3 1-5.2.3-1.9 1.4-7.8 2.5-13s2.2-11.5 2.6-14c.4-2.4.8-4.7 1-5 .2-.3.6-2.3.9-4.5.4-2.2 1.5-8.3 2.6-13.5 2.2-11 9.7-49.9 10.5-55 .3-1.9 1-5.3 1.5-7.5s1.2-5.6 1.5-7.5c.3-1.9 1-5.3 1.5-7.5s1.1-5.6 1.4-7.5c.3-1.9.8-4.6 1.1-6 1.2-5.3 8.7-44.7 9.1-47.5.2-1.7.6-3.6.9-4.3.7-1.8 60.5-1.8 60.6 0z"/><path d="M328 260.4c-.4 1.2-1.1 4.1-1.5 6.6-.4 2.5-.9 5.2-1 6-.9 3.9-5.6 27.8-6 30.3-.3 1.5-1.2 6-2.1 10-.8 3.9-1.8 8.9-2.1 11.1l-.5 3.8 16.8-.5c18.7-.6 19.3-.7 27.8-3.9 11-4.3 20.3-16.1 22.2-28.3 2-13.7.2-22.8-6.1-29-6.2-6.3-12-7.8-31.3-8-14.8-.2-15.4-.1-16.2 1.9z"/>
</svg>
